<svg id="Layer_1" data-name="Layer 1" xmlns="http://www.w3.org/2000/svg" viewBox="0 0 40 40"><defs><style>.cls-1{fill:#00a79d;}.cls-2{fill:#231f20;}</style></defs><title>Favicon</title><path class="cls-1" d="M13.94,21V22H5V21ZM5,29.19h8.94v-.92H5Zm0-3.62h8.94v-.92H5ZM34.48,10.72h-8.1v.9h6.94l-6.94,6.55.62.65,7-6.63v6.63h.9V11.17A.45.45,0,0,0,34.48,10.72Z"/><polygon class="cls-2" points="13.95 11.63 13.95 10.73 5.01 10.73 5.01 11.63 9.03 11.63 9.03 17.91 5.01 17.91 5.01 18.81 13.95 18.81 13.95 17.91 9.93 17.91 9.93 11.63 13.95 11.63"/><path class="cls-2" d="M25,15.38V11.64a.9.9,0,0,0-.9-.9H16a.9.9,0,0,0-.9.9v3.74H16V11.63h3.57v6.3H16v.89h8.09v-.89H20.49v-6.3h3.57v3.74Z"/><path class="cls-2" d="M34.54,24.67H29.69v.92h4.39a12,12,0,0,1-.19,1.62v.07a1.15,1.15,0,0,1-1,1h0a22.12,22.12,0,0,1-2.25.11c-.76,0-2.42-.12-2.58-.13a1.23,1.23,0,0,1-1-1l0-.14a11.53,11.53,0,0,1,0-4.11A1.24,1.24,0,0,1,28,22a23.05,23.05,0,0,1,2.63-.14q1.07,0,2.13.09l.17,0a1.25,1.25,0,0,1,1,1.08s0,.26.07.43h.92c0-.16-.07-.51-.08-.59A2.18,2.18,0,0,0,33,21.09l-.18,0h0c-.74-.07-1.48-.1-2.22-.1a24.88,24.88,0,0,0-2.74.15h0a2.13,2.13,0,0,0-1.67,1.65A12.84,12.84,0,0,0,26,25.1a11.75,11.75,0,0,0,.19,2.14l0,.14a2.16,2.16,0,0,0,1.74,1.76c.1,0,1.88.14,2.7.14s1.52,0,2.34-.12h0a2.11,2.11,0,0,0,1.79-1.69h0v-.07A11.72,11.72,0,0,0,35,25.13a.44.44,0,0,0-.46-.46Z"/><path class="cls-2" d="M23.73,27a11.86,11.86,0,0,1-.31,1.31H16.48a1.68,1.68,0,0,1-.07-.52,1.8,1.8,0,0,1,1.29-1.73l.09,0,5.42-1.33h0a1.92,1.92,0,0,0,1.35-1.87,1.9,1.9,0,0,0-1.7-1.93,25.22,25.22,0,0,0-2.73-.14,22.67,22.67,0,0,0-2.42.13l-.21,0a2.2,2.2,0,0,0-1.9,1.79l0,.11c-.06.32-.11.65-.14,1h.9q0-.42.12-.81l0-.1a1.3,1.3,0,0,1,1.12-1.08l.2,0a21.1,21.1,0,0,1,2.33-.13,26.25,26.25,0,0,1,2.64.14h0a1,1,0,0,1,.87,1,1,1,0,0,1-.69,1l-5.37,1.32-.15,0a2.74,2.74,0,0,0-1.82,3.42.84.84,0,0,0,.79.58h7a.87.87,0,0,0,.82-.66A13.75,13.75,0,0,0,24.64,27h-.91Z"/></svg>